<?xml version="1.0" encoding="utf-8"?>
<!-- Generator: Adobe Illustrator 23.0.5, SVG Export Plug-In . SVG Version: 6.00 Build 0)  -->
<svg version="1.1"
	 id="svg8" inkscape:version="0.92.3 (2405546, 2018-03-11)" sodipodi:docname="tipsTemplate.svg" xmlns:cc="http://creativecommons.org/ns#" xmlns:dc="http://purl.org/dc/elements/1.1/" xmlns:inkscape="http://www.inkscape.org/namespaces/inkscape" xmlns:rdf="http://www.w3.org/1999/02/22-rdf-syntax-ns#" xmlns:sodipodi="http://sodipodi.sourceforge.net/DTD/sodipodi-0.dtd" xmlns:svg="http://www.w3.org/2000/svg"
	 xmlns="http://www.w3.org/2000/svg" xmlns:xlink="http://www.w3.org/1999/xlink" x="0px" y="0px" viewBox="0 0 1920 1080"
	 style="enable-background:new 0 0 1920 1080;" xml:space="preserve">
<style type="text/css">
	.st0{fill:#00996D;}
	.st1{fill:#FFFFFF;}
	.st2{enable-background:new    ;}
	.st3{font-family:'CenturyGothic';}
	.st4{font-size:62.1317px;}
	.st5{font-family:'CenturyGothic-Bold';}
	.st6{font-size:71.1835px;}
	.st7{font-family:'Arial-ItalicMT';}
	.st8{font-size:41.8048px;}
	.st9{fill:#D02D7F;}
	.st10{fill:#C42C78;}
	.st11{fill:#95E9D2;}
	.st12{fill:#8CD9C3;}
	.st13{fill:#DBE77F;}
	.st14{fill:#CED977;}
	.st15{fill:#FC9FD8;}
	.st16{fill:#EC96CB;}
	.st17{fill:#F6C958;}
	.st18{fill:#E5BC53;}
	.st19{fill:#4D4D4D;}
	.st20{fill:#FFDB43;}
	.st21{fill:#9AD6D4;}
	.st22{fill:#FFAA0E;}
	.st23{fill:#0F873A;}
	.st24{fill:#F42177;}
	.st25{fill:#DD1C4B;}
	.st26{fill:#D1E3EE;}
	.st27{fill:#B21D48;}
	.st28{fill:#FFBF41;}
	.st29{fill:#D5557E;}
	.st30{fill:#DD95C1;}
	.st31{fill:#7FCCCB;}
	.st32{fill:#2276BB;}
	.st33{fill:#F6F6E7;}
	.st34{fill:#C9DA53;}
	.st35{fill:#2BB3CE;}
	.st36{fill:none;}
</style>
<sodipodi:namedview  bordercolor="#666666" borderopacity="1.0" id="base" inkscape:current-layer="layer1" inkscape:cx="869.10346" inkscape:cy="557.33615" inkscape:document-units="px" inkscape:pageopacity="0" inkscape:pageshadow="2" inkscape:window-height="1019" inkscape:window-maximized="1" inkscape:window-width="1920" inkscape:window-x="0" inkscape:window-y="32" inkscape:zoom="0.487118" pagecolor="#a2a2a2" showborder="true" showgrid="false" units="px" width="1920px">
	</sodipodi:namedview>
<g id="layer1" transform="translate(0,-11.249992)" inkscape:groupmode="layer" inkscape:label="Layer 1">
	<rect id="rect10565" x="-4.3" y="11.2" class="st0" width="1925.5" height="1080"/>
	<path id="path10567" inkscape:connector-curvature="0" sodipodi:nodetypes="cccccc" class="st0" d="M283.2,709.9l873.3,381.4h763.3
		V861.2l-310.2-151.5L283.2,709.9z"/>
	<path id="path10569" inkscape:connector-curvature="0" class="st1" d="M283.2,709.9c275.2,0,550.4,0,825.6,0
		c166.6,0,333.2,0,499.9,0c12,0,12-18.6,0-18.6c-275.2,0-550.4,0-825.6,0c-166.6,0-333.2,0-499.9,0
		C271.2,691.2,271.2,709.9,283.2,709.9L283.2,709.9"/>
	<text transform="matrix(1 0 0 1 445.3658 485.1543)" class="st2"><tspan x="0" y="0" class="st1 st3 st4">“The power of Open Source is the</tspan><tspan x="0" y="74.6" class="st1 st3 st4">power of the people.”</tspan></text>
	
		<image style="overflow:visible;enable-background:new    ;" width="607" height="204" id="image10577" xlink:href="928174E8.png"  transform="matrix(0.6667 0 0 0.6667 1408.7029 872.3243)">
	</image>
	<text transform="matrix(1 0 0 1 152.2949 963.2227)" class="st1 st5 st6">Autumn Hacks</text>
	<text transform="matrix(1 0 0 1 1128.1152 624.1367)" class="st1 st7 st8">- Tasnim Zotder</text>
	<g id="g11051" transform="translate(-185.48914,63.647455)">
		<g id="g10641" transform="matrix(0.14115788,0,0,0.14115788,222.87607,-73.370015)">
			<polygon id="polygon10587" class="st9" points="1865.4,635.3 1703.7,951.5 1542.1,635.3 			"/>
			<polygon id="polygon10589" class="st10" points="1865.4,635.3 1703.7,951.5 1703.7,635.3 			"/>
			<polygon id="polygon10591" class="st11" points="2261.7,508.4 2217.9,860.9 1957.8,619 			"/>
			<polygon id="polygon10593" class="st12" points="2261.7,508.4 2217.9,860.9 2109.7,563.7 			"/>
			<polygon id="polygon10595" class="st13" points="2590.6,253.6 2670.1,599.8 2342.9,461.5 			"/>
			<polygon id="polygon10597" class="st14" points="2590.6,253.6 2670.1,599.8 2466.8,357.5 			"/>
			<polygon id="polygon10599" class="st15" points="1064.5,461.5 737.4,599.8 816.8,253.6 			"/>
			<polygon id="polygon10601" class="st16" points="1064.5,461.5 737.4,599.8 940.7,357.5 			"/>
			<polygon id="polygon10603" class="st17" points="1449.7,619 1189.6,860.9 1145.8,508.4 			"/>
			<polygon id="polygon10605" class="st18" points="1449.7,619 1189.6,860.9 1297.7,563.7 			"/>
			<path id="path10607" inkscape:connector-curvature="0" class="st19" d="M1703.7,663.1c-193.1,0-377.6-44-548.6-130.6
				C992,449.8,847.2,329,736.2,183.1l33.4-25.4c107.2,140.9,247,257.6,404.5,337.4c165.1,83.7,343.2,126.1,529.6,126.1
				s364.6-42.4,529.6-126.1c157.4-79.8,297.3-196.5,404.5-337.4l33.4,25.4c-111,145.9-255.9,266.7-418.9,349.4
				C2081.4,619.2,1896.8,663.1,1703.7,663.1L1703.7,663.1z"/>
			<path id="path10609" inkscape:connector-curvature="0" d="M1703.7,663.1v-42c186.4,0,364.6-42.4,529.6-126.1
				c157.4-79.8,297.3-196.5,404.5-337.4l33.4,25.4c-111,145.9-255.9,266.7-418.9,349.4C2081.4,619.2,1896.8,663.1,1703.7,663.1
				L1703.7,663.1z"/>
			<g id="g10611">
			</g>
			<g id="g10613">
			</g>
			<g id="g10615">
			</g>
			<g id="g10617">
			</g>
			<g id="g10619">
			</g>
			<g id="g10621">
			</g>
			<g id="g10623">
			</g>
			<g id="g10625">
			</g>
			<g id="g10627">
			</g>
			<g id="g10629">
			</g>
			<g id="g10631">
			</g>
			<g id="g10633">
			</g>
			<g id="g10635">
			</g>
			<g id="g10637">
			</g>
			<g id="g10639">
			</g>
		</g>
		<g id="g10697" transform="matrix(0.14115788,0,0,0.14115788,295.05813,-73.370015)">
			<polygon id="polygon10643" class="st9" points="3125.1,951.5 2963.4,635.3 3286.7,635.3 			"/>
			<polygon id="polygon10645" class="st10" points="3125.1,951.5 3125.1,635.3 3286.7,635.3 			"/>
			<polygon id="polygon10647" class="st11" points="3639.3,860.9 3379.2,619 3683,508.4 			"/>
			<polygon id="polygon10649" class="st12" points="3639.3,860.9 3531.1,563.7 3683,508.4 			"/>
			<polygon id="polygon10651" class="st13" points="4091.4,599.8 3764.3,461.5 4012,253.6 			"/>
			<polygon id="polygon10653" class="st14" points="4091.4,599.8 3888.1,357.5 4012,253.6 			"/>
			<polygon id="polygon10655" class="st15" points="2158.7,599.8 2238.2,253.6 2485.9,461.5 			"/>
			<polygon id="polygon10657" class="st16" points="2158.7,599.8 2362,357.5 2485.9,461.5 			"/>
			<polygon id="polygon10659" class="st17" points="2610.9,860.9 2567.1,508.4 2871,619 			"/>
			<polygon id="polygon10661" class="st18" points="2610.9,860.9 2719.1,563.7 2871,619 			"/>
			<path id="path10663" inkscape:connector-curvature="0" class="st19" d="M3125.1,663.1c-193.1,0-377.6-44-548.6-130.6
				c-163.1-82.7-307.9-203.5-418.9-349.4l33.4-25.4c107.2,140.9,247,257.6,404.5,337.4c165.1,83.7,343.2,126.1,529.6,126.1
				c186.4,0,364.6-42.4,529.6-126.1c157.4-79.8,297.3-196.5,404.5-337.4l33.4,25.4c-111,145.9-255.9,266.7-418.9,349.4
				C3502.7,619.2,3318.1,663.1,3125.1,663.1L3125.1,663.1z"/>
			<path id="path10665" inkscape:connector-curvature="0" d="M3125.1,663.1v-42c186.4,0,364.6-42.4,529.6-126.1
				c157.4-79.8,297.3-196.5,404.5-337.4l33.4,25.4c-111,145.9-255.9,266.7-418.9,349.4C3502.7,619.2,3318.1,663.1,3125.1,663.1
				L3125.1,663.1z"/>
			<g id="g10667">
			</g>
			<g id="g10669">
			</g>
			<g id="g10671">
			</g>
			<g id="g10673">
			</g>
			<g id="g10675">
			</g>
			<g id="g10677">
			</g>
			<g id="g10679">
			</g>
			<g id="g10681">
			</g>
			<g id="g10683">
			</g>
			<g id="g10685">
			</g>
			<g id="g10687">
			</g>
			<g id="g10689">
			</g>
			<g id="g10691">
			</g>
			<g id="g10693">
			</g>
			<g id="g10695">
			</g>
		</g>
		<g id="g10753" transform="matrix(0.14115788,0,0,0.14115788,367.2402,-73.370015)">
			<polygon id="polygon10699" class="st9" points="4546.4,951.5 4384.7,635.3 4708.1,635.3 			"/>
			<polygon id="polygon10701" class="st10" points="4546.4,951.5 4546.4,635.3 4708.1,635.3 			"/>
			<polygon id="polygon10703" class="st11" points="5060.6,860.9 4800.5,619 5104.3,508.4 			"/>
			<polygon id="polygon10705" class="st12" points="5060.6,860.9 4952.4,563.7 5104.3,508.4 			"/>
			<polygon id="polygon10707" class="st13" points="5512.7,599.8 5185.6,461.5 5433.3,253.6 			"/>
			<polygon id="polygon10709" class="st14" points="5512.7,599.8 5309.4,357.5 5433.3,253.6 			"/>
			<polygon id="polygon10711" class="st15" points="3580.1,599.8 3659.5,253.6 3907.2,461.5 			"/>
			<polygon id="polygon10713" class="st16" points="3580.1,599.8 3783.4,357.5 3907.2,461.5 			"/>
			<polygon id="polygon10715" class="st17" points="4032.2,860.9 3988.5,508.4 4292.3,619 			"/>
			<polygon id="polygon10717" class="st18" points="4032.2,860.9 4140.4,563.7 4292.3,619 			"/>
			<path id="path10719" inkscape:connector-curvature="0" class="st19" d="M4546.4,663.1c-193.1,0-377.6-44-548.6-130.6
				c-163.1-82.7-307.9-203.5-418.9-349.4l33.4-25.4c107.2,140.9,247,257.6,404.5,337.4c165.1,83.7,343.2,126.1,529.6,126.1
				c186.4,0,364.6-42.4,529.6-126.1c157.4-79.8,297.3-196.5,404.5-337.4l33.4,25.4C5403,329,5258.1,449.8,5095,532.5
				C4924,619.2,4739.5,663.1,4546.4,663.1L4546.4,663.1z"/>
			<path id="path10721" inkscape:connector-curvature="0" d="M4546.4,663.1v-42c186.4,0,364.6-42.4,529.6-126.1
				c157.4-79.8,297.3-196.5,404.5-337.4l33.4,25.4C5403,329,5258.1,449.8,5095,532.5C4924,619.2,4739.5,663.1,4546.4,663.1
				L4546.4,663.1z"/>
			<g id="g10723">
			</g>
			<g id="g10725">
			</g>
			<g id="g10727">
			</g>
			<g id="g10729">
			</g>
			<g id="g10731">
			</g>
			<g id="g10733">
			</g>
			<g id="g10735">
			</g>
			<g id="g10737">
			</g>
			<g id="g10739">
			</g>
			<g id="g10741">
			</g>
			<g id="g10743">
			</g>
			<g id="g10745">
			</g>
			<g id="g10747">
			</g>
			<g id="g10749">
			</g>
			<g id="g10751">
			</g>
		</g>
		<g id="g10809" transform="matrix(0.14115788,0,0,0.14115788,439.42228,-73.370015)">
			<polygon id="polygon10755" class="st9" points="5806.1,635.3 6129.4,635.3 5967.7,951.5 			"/>
			<polygon id="polygon10757" class="st10" points="5967.7,635.3 6129.4,635.3 5967.7,951.5 			"/>
			<polygon id="polygon10759" class="st11" points="6221.8,619 6525.7,508.4 6481.9,860.9 			"/>
			<polygon id="polygon10761" class="st12" points="6373.7,563.7 6525.7,508.4 6481.9,860.9 			"/>
			<polygon id="polygon10763" class="st13" points="6606.9,461.5 6854.6,253.6 6934.1,599.8 			"/>
			<polygon id="polygon10765" class="st14" points="6730.8,357.5 6854.6,253.6 6934.1,599.8 			"/>
			<polygon id="polygon10767" class="st15" points="5080.8,253.6 5328.5,461.5 5001.4,599.8 			"/>
			<polygon id="polygon10769" class="st16" points="5204.7,357.5 5328.5,461.5 5001.4,599.8 			"/>
			<polygon id="polygon10771" class="st17" points="5409.8,508.4 5713.6,619 5453.5,860.9 			"/>
			<polygon id="polygon10773" class="st18" points="5561.7,563.7 5713.6,619 5453.5,860.9 			"/>
			<path id="path10775" inkscape:connector-curvature="0" class="st19" d="M5967.7,663.1c-193.1,0-377.6-44-548.6-130.6
				C5256,449.8,5111.2,329,5000.2,183.1l33.4-25.4c107.2,140.9,247,257.6,404.5,337.4c165.1,83.7,343.2,126.1,529.6,126.1
				c186.4,0,364.6-42.4,529.6-126.1c157.4-79.8,297.3-196.5,404.5-337.4l33.4,25.4c-111,145.9-255.9,266.7-418.9,349.4
				C6345.4,619.2,6160.8,663.1,5967.7,663.1L5967.7,663.1z"/>
			<path id="path10777" inkscape:connector-curvature="0" d="M5967.7,663.1v-42c186.4,0,364.6-42.4,529.6-126.1
				c157.4-79.8,297.3-196.5,404.5-337.4l33.4,25.4c-111,145.9-255.9,266.7-418.9,349.4C6345.4,619.2,6160.8,663.1,5967.7,663.1
				L5967.7,663.1z"/>
			<g id="g10779">
			</g>
			<g id="g10781">
			</g>
			<g id="g10783">
			</g>
			<g id="g10785">
			</g>
			<g id="g10787">
			</g>
			<g id="g10789">
			</g>
			<g id="g10791">
			</g>
			<g id="g10793">
			</g>
			<g id="g10795">
			</g>
			<g id="g10797">
			</g>
			<g id="g10799">
			</g>
			<g id="g10801">
			</g>
			<g id="g10803">
			</g>
			<g id="g10805">
			</g>
			<g id="g10807">
			</g>
		</g>
		<g id="g10865" transform="matrix(0.14115788,0,0,0.14115788,511.69539,-73.370015)">
			<polygon id="polygon10811" class="st9" points="7229.2,635.3 7552.5,635.3 7390.9,951.5 			"/>
			<polygon id="polygon10813" class="st10" points="7390.9,635.3 7552.5,635.3 7390.9,951.5 			"/>
			<polygon id="polygon10815" class="st11" points="7644.9,619 7948.8,508.4 7905,860.9 			"/>
			<polygon id="polygon10817" class="st12" points="7796.9,563.7 7948.8,508.4 7905,860.9 			"/>
			<polygon id="polygon10819" class="st13" points="8030,461.5 8277.7,253.6 8357.2,599.8 			"/>
			<polygon id="polygon10821" class="st14" points="8153.9,357.5 8277.7,253.6 8357.2,599.8 			"/>
			<polygon id="polygon10823" class="st15" points="6504,253.6 6751.7,461.5 6424.5,599.8 			"/>
			<polygon id="polygon10825" class="st16" points="6627.8,357.5 6751.7,461.5 6424.5,599.8 			"/>
			<polygon id="polygon10827" class="st17" points="6832.9,508.4 7136.8,619 6876.7,860.9 			"/>
			<polygon id="polygon10829" class="st18" points="6984.8,563.7 7136.8,619 6876.7,860.9 			"/>
			<path id="path10831" inkscape:connector-curvature="0" class="st19" d="M7390.9,663.1c-193.1,0-377.6-44-548.6-130.6
				c-163.1-82.7-307.9-203.5-418.9-349.4l33.4-25.4c107.2,140.9,247,257.6,404.5,337.4c165.1,83.7,343.2,126.1,529.6,126.1
				c186.4,0,364.6-42.4,529.6-126.1c157.4-79.8,297.3-196.5,404.5-337.4l33.4,25.4c-111,145.9-255.9,266.7-418.9,349.4
				C7768.5,619.2,7583.9,663.1,7390.9,663.1L7390.9,663.1z"/>
			<path id="path10833" inkscape:connector-curvature="0" d="M7390.9,663.1v-42c186.4,0,364.6-42.4,529.6-126.1
				c157.4-79.8,297.3-196.5,404.5-337.4l33.4,25.4c-111,145.9-255.9,266.7-418.9,349.4C7768.5,619.2,7583.9,663.1,7390.9,663.1
				L7390.9,663.1z"/>
			<g id="g10835">
			</g>
			<g id="g10837">
			</g>
			<g id="g10839">
			</g>
			<g id="g10841">
			</g>
			<g id="g10843">
			</g>
			<g id="g10845">
			</g>
			<g id="g10847">
			</g>
			<g id="g10849">
			</g>
			<g id="g10851">
			</g>
			<g id="g10853">
			</g>
			<g id="g10855">
			</g>
			<g id="g10857">
			</g>
			<g id="g10859">
			</g>
			<g id="g10861">
			</g>
			<g id="g10863">
			</g>
		</g>
		<g id="g10921" transform="matrix(0.14115788,0,0,0.14115788,583.87746,-73.370015)">
			<polygon id="polygon10867" class="st9" points="8973.9,635.3 8812.2,951.5 8650.5,635.3 			"/>
			<polygon id="polygon10869" class="st10" points="8973.9,635.3 8812.2,951.5 8812.2,635.3 			"/>
			<polygon id="polygon10871" class="st11" points="9370.1,508.4 9326.4,860.9 9066.3,619 			"/>
			<polygon id="polygon10873" class="st12" points="9370.1,508.4 9326.4,860.9 9218.2,563.7 			"/>
			<polygon id="polygon10875" class="st13" points="9699.1,253.6 9778.5,599.8 9451.4,461.5 			"/>
			<polygon id="polygon10877" class="st14" points="9699.1,253.6 9778.5,599.8 9575.2,357.5 			"/>
			<polygon id="polygon10879" class="st15" points="8173,461.5 7845.8,599.8 7925.3,253.6 			"/>
			<polygon id="polygon10881" class="st16" points="8173,461.5 7845.8,599.8 8049.1,357.5 			"/>
			<polygon id="polygon10883" class="st17" points="8558.1,619 8298,860.9 8254.3,508.4 			"/>
			<polygon id="polygon10885" class="st18" points="8558.1,619 8298,860.9 8406.2,563.7 			"/>
			<path id="path10887" inkscape:connector-curvature="0" class="st19" d="M8812.2,663.1c-193.1,0-377.6-44-548.6-130.6
				c-163.1-82.7-307.9-203.5-418.9-349.4l33.4-25.4c107.2,140.9,247,257.6,404.5,337.4c165.1,83.7,343.2,126.1,529.6,126.1
				s364.6-42.4,529.6-126.1c157.4-79.8,297.3-196.5,404.5-337.4l33.4,25.4c-111,145.9-255.9,266.7-418.9,349.4
				C9189.8,619.2,9005.2,663.1,8812.2,663.1L8812.2,663.1z"/>
			<path id="path10889" inkscape:connector-curvature="0" d="M8812.2,663.1v-42c186.4,0,364.6-42.4,529.6-126.1
				c157.4-79.8,297.3-196.5,404.5-337.4l33.4,25.4c-111,145.9-255.9,266.7-418.9,349.4C9189.8,619.2,9005.2,663.1,8812.2,663.1
				L8812.2,663.1z"/>
			<g id="g10891">
			</g>
			<g id="g10893">
			</g>
			<g id="g10895">
			</g>
			<g id="g10897">
			</g>
			<g id="g10899">
			</g>
			<g id="g10901">
			</g>
			<g id="g10903">
			</g>
			<g id="g10905">
			</g>
			<g id="g10907">
			</g>
			<g id="g10909">
			</g>
			<g id="g10911">
			</g>
			<g id="g10913">
			</g>
			<g id="g10915">
			</g>
			<g id="g10917">
			</g>
			<g id="g10919">
			</g>
		</g>
		<g id="g10977" transform="matrix(0.07902454,-0.1169644,0.1169644,0.07902454,167.25422,-4.1032394)">
			<polygon id="polygon10923" class="st9" points="-183.1,1283.1 140.3,1283.1 -21.4,1599.4 			"/>
			<polygon id="polygon10925" class="st10" points="-21.4,1283.1 140.3,1283.1 -21.4,1599.4 			"/>
			<polygon id="polygon10927" class="st11" points="232.7,1266.8 536.5,1156.2 492.8,1508.7 			"/>
			<polygon id="polygon10929" class="st12" points="384.6,1211.5 536.5,1156.2 492.8,1508.7 			"/>
			<polygon id="polygon10931" class="st13" points="617.8,1109.3 865.5,901.4 944.9,1247.6 			"/>
			<polygon id="polygon10933" class="st14" points="741.6,1005.3 865.5,901.4 944.9,1247.6 			"/>
			<polygon id="polygon10935" class="st15" points="-908.3,901.4 -660.6,1109.3 -987.8,1247.6 			"/>
			<polygon id="polygon10937" class="st16" points="-784.5,1005.4 -660.6,1109.3 -987.8,1247.6 			"/>
			<polygon id="polygon10939" class="st17" points="-579.3,1156.2 -275.5,1266.8 -535.6,1508.7 			"/>
			<polygon id="polygon10941" class="st18" points="-427.4,1211.5 -275.5,1266.8 -535.6,1508.7 			"/>
			<path id="path10943" inkscape:connector-curvature="0" class="st19" d="M-21.4,1311c-193.1,0-377.6-44-548.6-130.6
				C-733.1,1097.7-878,976.8-989,830.9l33.4-25.4c107.2,140.9,247.1,257.6,404.5,337.4C-386,1226.5-207.8,1269-21.4,1269
				c186.4,0,364.6-42.4,529.6-126.1c157.4-79.8,297.3-196.5,404.5-337.4l33.4,25.4c-111,145.9-255.9,266.7-418.9,349.4
				C356.2,1267,171.6,1311-21.4,1311L-21.4,1311z"/>
			<path id="path10945" inkscape:connector-curvature="0" d="M-21.4,1311l0-42c186.4,0,364.6-42.4,529.6-126.1
				c157.4-79.8,297.3-196.5,404.5-337.4l33.4,25.4c-111,145.9-255.9,266.7-418.9,349.4C356.2,1267,171.6,1311-21.4,1311L-21.4,1311z
				"/>
			<g id="g10947">
			</g>
			<g id="g10949">
			</g>
			<g id="g10951">
			</g>
			<g id="g10953">
			</g>
			<g id="g10955">
			</g>
			<g id="g10957">
			</g>
			<g id="g10959">
			</g>
			<g id="g10961">
			</g>
			<g id="g10963">
			</g>
			<g id="g10965">
			</g>
			<g id="g10967">
			</g>
			<g id="g10969">
			</g>
			<g id="g10971">
			</g>
			<g id="g10973">
			</g>
			<g id="g10975">
			</g>
		</g>
		<g id="g11033" transform="matrix(-0.07902454,-0.1169644,-0.1169644,0.07902454,711.72402,-4.9743404)">
			<polygon id="polygon10979" class="st9" points="-5445.6,-7015 -5607.2,-6698.8 -5768.9,-7015 			"/>
			<polygon id="polygon10981" class="st10" points="-5445.6,-7015 -5607.2,-6698.8 -5607.2,-7015 			"/>
			<polygon id="polygon10983" class="st11" points="-5049.3,-7141.9 -5093,-6789.4 -5353.1,-7031.3 			"/>
			<polygon id="polygon10985" class="st12" points="-5049.3,-7141.9 -5093,-6789.4 -5201.2,-7086.6 			"/>
			<polygon id="polygon10987" class="st13" points="-4720.3,-7396.7 -4640.9,-7050.5 -4968,-7188.9 			"/>
			<polygon id="polygon10989" class="st14" points="-4720.3,-7396.7 -4640.9,-7050.5 -4844.2,-7292.8 			"/>
			<polygon id="polygon10991" class="st15" points="-6246.4,-7188.8 -6573.6,-7050.5 -6494.1,-7396.7 			"/>
			<polygon id="polygon10993" class="st16" points="-6246.4,-7188.8 -6573.6,-7050.5 -6370.3,-7292.8 			"/>
			<polygon id="polygon10995" class="st17" points="-5861.3,-7031.3 -6121.4,-6789.4 -6165.2,-7141.9 			"/>
			<polygon id="polygon10997" class="st18" points="-5861.3,-7031.3 -6121.4,-6789.4 -6013.2,-7086.6 			"/>
			<path id="path10999" inkscape:connector-curvature="0" class="st19" d="M-5607.2-6987.2c-193.1,0-377.6-44-548.6-130.6
				c-163.1-82.7-307.9-203.5-418.9-349.4l33.4-25.4c107.2,140.9,247,257.6,404.5,337.4c165.1,83.7,343.2,126.1,529.6,126.1
				c186.4,0,364.6-42.4,529.6-126.1c157.4-79.8,297.3-196.5,404.5-337.4l33.4,25.4c-111,145.9-255.9,266.7-418.9,349.4
				C-5229.6-7031.1-5414.2-6987.2-5607.2-6987.2L-5607.2-6987.2z"/>
			<path id="path11001" inkscape:connector-curvature="0" d="M-5607.2-6987.2v-42c186.4,0,364.6-42.4,529.6-126.1
				c157.4-79.8,297.3-196.5,404.5-337.4l33.4,25.4c-111,145.9-255.9,266.7-418.9,349.4C-5229.6-7031.1-5414.2-6987.2-5607.2-6987.2
				L-5607.2-6987.2z"/>
			<g id="g11003">
			</g>
			<g id="g11005">
			</g>
			<g id="g11007">
			</g>
			<g id="g11009">
			</g>
			<g id="g11011">
			</g>
			<g id="g11013">
			</g>
			<g id="g11015">
			</g>
			<g id="g11017">
			</g>
			<g id="g11019">
			</g>
			<g id="g11021">
			</g>
			<g id="g11023">
			</g>
			<g id="g11025">
			</g>
			<g id="g11027">
			</g>
			<g id="g11029">
			</g>
			<g id="g11031">
			</g>
		</g>
		<path id="path11035" inkscape:connector-curvature="0" class="st10" d="M238.1,20.7l6.3,12.8l14.2,2.1l-10.3,10l2.4,14.1
			l-12.7-6.7l-12.7,6.7l2.4-14.1l-10.3-10l14.2-2.1L238.1,20.7z"/>
		<path id="path11037" inkscape:connector-curvature="0" class="st12" d="M461-38.6l4.4,9l9.9,1.4l-7.2,7l1.7,9.9l-8.9-4.7l-8.9,4.7
			l1.7-9.9l-7.2-7l9.9-1.4L461-38.6z"/>
		<path id="path11039" inkscape:connector-curvature="0" class="st20" d="M731.4-38.6l4.4,9l9.9,1.4l-7.2,7l1.7,9.9l-8.9-4.7
			l-8.9,4.7l1.7-9.9l-7.2-7l9.9-1.4L731.4-38.6z"/>
		<path id="path11041" inkscape:connector-curvature="0" class="st12" d="M1005.3-38.6l4.4,9l9.9,1.4l-7.2,7l1.7,9.9l-8.9-4.7
			l-8.9,4.7l1.7-9.9l-7.2-7l9.9-1.4L1005.3-38.6z"/>
		<path id="path11043" inkscape:connector-curvature="0" class="st20" d="M1281.8-38.6l4.4,9l9.9,1.4l-7.2,7l1.7,9.9l-8.9-4.7
			l-8.9,4.7l1.7-9.9l-7.2-7l9.9-1.4L1281.8-38.6z"/>
		<path id="path11045" inkscape:connector-curvature="0" class="st12" d="M1553.1-38.6l4.4,9l9.9,1.4l-7.2,7l1.7,9.9l-8.9-4.7
			l-8.9,4.7l1.7-9.9l-7.2-7l9.9-1.4L1553.1-38.6z"/>
		<path id="path11047" inkscape:connector-curvature="0" class="st20" d="M1800.8-38.6l4.4,9l9.9,1.4l-7.2,7l1.7,9.9l-8.9-4.7
			l-8.9,4.7l1.7-9.9l-7.2-7l9.9-1.4L1800.8-38.6z"/>
		<path id="path11049" inkscape:connector-curvature="0" class="st15" d="M2042.5,20.7l6.3,12.8l14.2,2.1l-10.3,10l2.4,14.1
			l-12.7-6.7l-12.7,6.7l2.4-14.1l-10.3-10l14.2-2.1L2042.5,20.7z"/>
	</g>
	<g id="g11095" transform="matrix(0.08650939,-9.6968369e-4,9.6968369e-4,0.08650939,51.60983,147.23962)">
		<path id="path11053" inkscape:connector-curvature="0" class="st21" d="M2800.3,5879.5L2608,6183l0-508.9h-62.8l0,508.9
			l-192.4-303.5l-53,33.6l250.3,394.9c5.8,9.1,15.8,14.6,26.5,14.6c10.7,0,20.7-5.5,26.5-14.6l250.3-394.9L2800.3,5879.5z"/>
		<path id="path11055" inkscape:connector-curvature="0" class="st22" d="M2333.5,5189.4c-113.2-179.2-350.2-232.6-529.4-119.4
			c-179.2,113.2-232.6,350.2-119.4,529.4c109.5,173.3,397.3,247.4,596.6,256.4l1.9,115.7l129.6-82.1l-103.8-51
			C2386.4,5654.4,2443,5362.7,2333.5,5189.4z"/>
		<path id="path11057" inkscape:connector-curvature="0" class="st23" d="M2819.7,5189.4c113.2-179.1,350.2-232.6,529.4-119.4
			c179.2,113.2,232.6,350.2,119.4,529.4c-109.5,173.3-397.3,247.4-596.6,256.4l-1.9,115.7l-129.6-82.1l103.8-51
			C2766.8,5654.4,2710.2,5362.7,2819.7,5189.4z"/>
		<path id="path11059" inkscape:connector-curvature="0" class="st1" d="M1790.4,5564.4c-10.4,0-20.6-5.2-26.5-14.6
			c-85.5-134.9-45.3-314.1,89.6-399.6c14.6-9.3,34-4.9,43.3,9.7c9.3,14.6,4.9,34-9.7,43.3c-105.6,67-137.1,207.4-70.2,313
			c9.3,14.6,4.9,34-9.7,43.3C1802,5562.8,1796.2,5564.4,1790.4,5564.4z"/>
		<path id="path11061" inkscape:connector-curvature="0" class="st24" d="M3082.2,4893c0-279.2-226.3-505.6-505.6-505.6
			S2071,4613.7,2071,4892.9c0,269.8,267.6,554.4,483.1,704.9l-72.2,118.1l189.3,0l-72.2-118.1
			C2814.5,5447.4,3082.2,5162.7,3082.2,4893z"/>
		<path id="path11063" inkscape:connector-curvature="0" class="st1" d="M2196.5,4924.3C2196.5,4924.3,2196.5,4924.3,2196.5,4924.3
			c-17.3,0-31.4-14.1-31.4-31.4c0-226.8,184.6-411.4,411.4-411.4c17.3,0,31.4,14,31.4,31.4c0,17.3-14,31.4-31.4,31.4
			c-192.2,0-348.6,156.4-348.7,348.6C2227.9,4910.2,2213.9,4924.3,2196.5,4924.3z"/>
		<g id="g11065">
		</g>
		<g id="g11067">
		</g>
		<g id="g11069">
		</g>
		<g id="g11071">
		</g>
		<g id="g11073">
		</g>
		<g id="g11075">
		</g>
		<g id="g11077">
		</g>
		<g id="g11079">
		</g>
		<g id="g11081">
		</g>
		<g id="g11083">
		</g>
		<g id="g11085">
		</g>
		<g id="g11087">
		</g>
		<g id="g11089">
		</g>
		<g id="g11091">
		</g>
		<g id="g11093">
		</g>
	</g>
	<g id="g11151" transform="matrix(0.74190032,-0.09647459,0.09647459,0.74190032,220.73848,-35.287671)">
		<path id="path11097" inkscape:connector-curvature="0" class="st25" d="M1835.2,1087.4c-31.8-31.8-66.7-48.5-77.9-37.3
			c-1.2,1.3-2.1,2.9-2.6,4.6l-0.2-0.2l-10.7,43.9l-10.7,43.8l-12.6,51.8l-8,32.8l47.4-17.9l60.3-22.8l48.1-18.2l-0.1-0.1
			c1.6-0.5,3.1-1.4,4.3-2.5C1883.7,1154.1,1867,1119.2,1835.2,1087.4L1835.2,1087.4z"/>
		
			<ellipse id="ellipse11099" transform="matrix(-0.7071 0.7071 -0.7071 -0.7071 3881.4382 607.6145)" class="st26" cx="1814.9" cy="1107.7" rx="28.7" ry="81.4"/>
		<path id="path11101" inkscape:connector-curvature="0" class="st27" d="M1863.8,1169.3c-5.7,0.1-11.4-1-16.7-3.3l-39.3,14.9
			l-60.3,22.8l-32.3,12.2l-2.7,11.3l47.4-17.9l60.3-22.8l44.1-16.7L1863.8,1169.3z"/>
		<g id="g11109" transform="matrix(0.13569775,0,0,0.13569775,231.45814,278.01843)">
			<path id="path11103" inkscape:connector-curvature="0" class="st28" d="M12395.4,6329.3c-3.6,0-7.2-0.7-10.6-1.9
				c-153.5-57.5-319.4-73.6-481.1-46.7l-108,18c-16.5,2.4-31.8-9.1-34.2-25.7c-2.3-16,8.4-30.9,24.2-34l108-18.1
				c172.2-28.6,348.8-11.5,512.3,49.7c15.7,5.6,23.9,23,18.2,38.7C12419.9,6321.4,12408.3,6329.4,12395.4,6329.3L12395.4,6329.3z"/>
			<path id="path11105" inkscape:connector-curvature="0" class="st28" d="M11851.1,6147.9c-16.7-0.1-30.2-13.7-30.1-30.4
				c0.1-11.5,6.7-22,17.1-27l635-302.4c15.1-7.2,33.1-0.8,40.3,14.3c7.2,15.1,0.8,33.1-14.3,40.3l0,0l-635,302.4
				C11860.1,6146.9,11855.6,6147.9,11851.1,6147.9z"/>
			<path id="path11107" inkscape:connector-curvature="0" class="st28" d="M11497.6,6087.4c-4,0-7.9-0.8-11.6-2.3
				c-15.4-6.4-22.7-24.1-16.3-39.5v0l44-105.5c67.6-161.6,83.4-340.3,45.1-511.3c-3.9-16.2,6.1-32.6,22.3-36.5
				c16.2-3.9,32.6,6.1,36.5,22.3c0.1,0.4,0.2,0.7,0.2,1.1c41,183.2,24.1,374.5-48.4,547.7l-44,105.5
				C11520.7,6080,11509.8,6087.4,11497.6,6087.4z"/>
		</g>
		<circle id="circle11111" class="st29" cx="1934" cy="1145.1" r="8.2"/>
		<circle id="circle11113" class="st30" cx="1835.5" cy="1030.2" r="8.2"/>
		<path id="path11115" inkscape:connector-curvature="0" class="st31" d="M1798.6,1001.5c-4.5,0-8.2-3.7-8.2-8.2
			c0-4.5,3.7-8.2,8.2-8.2c4.5,0,8.2,3.7,8.2,8.2C1806.8,997.8,1803.1,1001.5,1798.6,1001.5L1798.6,1001.5z"/>
		<g id="g11125" transform="matrix(0.13569775,0,0,0.13569775,231.45814,278.01843)">
			<path id="path11117" inkscape:connector-curvature="0" class="st32" d="M12395.4,5452.4c-16.7,0-30.2-13.5-30.2-30.2V5392
				c0-16.7,13.5-30.2,30.2-30.2c16.7,0,30.2,13.5,30.2,30.2v30.2C12425.6,5438.9,12412.1,5452.4,12395.4,5452.4z"/>
			<path id="path11119" inkscape:connector-curvature="0" class="st32" d="M12395.4,5301.2c-16.7,0-30.2-13.5-30.2-30.2v-30.2
				c0-16.7,13.5-30.2,30.2-30.2c16.7,0,30.2,13.5,30.2,30.2v30.2C12425.6,5287.7,12412.1,5301.2,12395.4,5301.2z"/>
			<path id="path11121" inkscape:connector-curvature="0" class="st32" d="M12486.1,5361.7h-30.2c-16.7,0-30.2-13.5-30.2-30.2
				s13.5-30.2,30.2-30.2h30.2c16.7,0,30.2,13.5,30.2,30.2S12502.8,5361.7,12486.1,5361.7z"/>
			<path id="path11123" inkscape:connector-curvature="0" class="st32" d="M12334.9,5361.7h-30.2c-16.7,0-30.2-13.5-30.2-30.2
				c0-16.7,13.5-30.2,30.2-30.2h30.2c16.7,0,30.2,13.5,30.2,30.2C12365.2,5348.2,12351.6,5361.7,12334.9,5361.7z"/>
		</g>
		<path id="path11127" inkscape:connector-curvature="0" class="st1" d="M1745,1104.1c-0.5-1.8-0.9-3.5-1.3-5.3l-10.7,43.8l0.8,10
			c1.8,21.3,11,41.4,25.9,56.7l60.3-22.8c-0.3-0.1-0.7-0.2-1-0.3C1782.6,1172.4,1754.9,1141.8,1745,1104.1L1745,1104.1z"/>
		<path id="path11129" inkscape:connector-curvature="0" class="st33" d="M1820.1,1186.4c-0.3-0.1-0.7-0.2-1-0.3
			c-3.9-1.5-7.8-3.2-11.6-5.1l-54.3,20.5c2.1,2.7,4.3,5.2,6.6,7.7L1820.1,1186.4z"/>
		<path id="path11131" inkscape:connector-curvature="0" class="st34" d="M1884.8,1034.2v20.6h-20.6v-20.6H1884.8z"/>
		<path id="path11133" inkscape:connector-curvature="0" class="st28" d="M1810.9,1108.2c-2.3,0-4.1-1.8-4.1-4.1
			c0-1.2,0.5-2.3,1.4-3l41-36.9c1.7-1.5,4.3-1.3,5.8,0.4c1.4,1.7,1.3,4.2-0.3,5.7l-41,36.9
			C1812.9,1107.8,1811.9,1108.2,1810.9,1108.2L1810.9,1108.2z"/>
		<path id="path11135" inkscape:connector-curvature="0" class="st20" d="M1929.9,1091.8c-2.3,0-4.1-1.8-4.1-4.1v-4.1
			c0-2.3,1.8-4.1,4.1-4.1c2.3,0,4.1,1.8,4.1,4.1v4.1C1934,1089.9,1932.2,1091.8,1929.9,1091.8z"/>
		<path id="path11137" inkscape:connector-curvature="0" class="st20" d="M1944.4,1085.7c-1.1,0-2.1-0.4-2.9-1.2l-2.9-2.9
			c-1.6-1.6-1.5-4.2,0.1-5.8c1.6-1.5,4.1-1.5,5.7,0l2.9,2.9c1.6,1.6,1.6,4.2,0,5.8C1946.5,1085.3,1945.5,1085.7,1944.4,1085.7
			L1944.4,1085.7z"/>
		<path id="path11139" inkscape:connector-curvature="0" class="st20" d="M1950.4,1071.2h-4.1c-2.3,0-4.1-1.8-4.1-4.1
			s1.8-4.1,4.1-4.1h4.1c2.3,0,4.1,1.8,4.1,4.1S1952.7,1071.2,1950.4,1071.2z"/>
		<path id="path11141" inkscape:connector-curvature="0" class="st20" d="M1941.5,1059.6c-2.3,0-4.1-1.8-4.1-4.1
			c0-1.1,0.4-2.1,1.2-2.9l2.9-2.9c1.6-1.6,4.2-1.5,5.8,0.1c1.5,1.6,1.5,4.1,0,5.7l-2.9,2.9
			C1943.6,1059.2,1942.6,1059.6,1941.5,1059.6L1941.5,1059.6z"/>
		<path id="path11143" inkscape:connector-curvature="0" class="st20" d="M1929.9,1054.8c-2.3,0-4.1-1.8-4.1-4.1v-4.1
			c0-2.3,1.8-4.1,4.1-4.1s4.1,1.8,4.1,4.1v4.1C1934,1053,1932.2,1054.8,1929.9,1054.8z"/>
		<path id="path11145" inkscape:connector-curvature="0" class="st20" d="M1918.3,1059.6c-1.1,0-2.1-0.4-2.9-1.2l-2.9-2.9
			c-1.6-1.6-1.5-4.2,0.1-5.8c1.6-1.5,4.1-1.5,5.7,0l2.9,2.9c1.6,1.6,1.6,4.2,0,5.8C1920.4,1059.2,1919.4,1059.6,1918.3,1059.6
			L1918.3,1059.6z"/>
		<path id="path11147" inkscape:connector-curvature="0" class="st20" d="M1733,989.2l6.3,12.8l14.2,2.1l-10.3,10l2.4,14.1
			l-12.7-6.7l-12.7,6.7l2.4-14.1l-10.3-10l14.2-2.1L1733,989.2z"/>
		<path id="path11149" inkscape:connector-curvature="0" class="st35" d="M1953.2,1207.3c-2-6.9-6.4-12.8-12.6-16.6l-1.7-2.5
			c-9.5-14.2-24.4-23.8-41.2-26.6c-2.2-0.3-4.3,1.2-4.6,3.5c-0.3,2.2,1.1,4.2,3.3,4.6c12.1,2.1,23.2,8.2,31.3,17.5
			c-6.8,1.2-12.8,5.3-16.4,11.3c-4.4,7.9-1.6,17.9,6.3,22.3c7.9,4.4,17.9,1.6,22.3-6.3c1.7-3.3,2.6-6.9,2.7-10.5
			c4.4,6.3,4.7,14.6,0.9,21.3c-1.2,1.9-0.5,4.5,1.4,5.6c1.9,1.2,4.5,0.5,5.6-1.4c0-0.1,0.1-0.1,0.1-0.2
			C1954.4,1222.5,1955.3,1214.6,1953.2,1207.3L1953.2,1207.3z M1932.8,1210.4c-2.2,4-7.2,5.4-11.1,3.2c-4-2.2-5.4-7.2-3.2-11.1
			c0,0,0,0,0-0.1c2.4-4,6.5-6.6,11.1-7.2c0.7,0,1.4,0.1,2.1,0.5C1935.1,1197.6,1935.3,1205.9,1932.8,1210.4L1932.8,1210.4z"/>
	</g>
</g>
<rect x="1506" y="451.8" class="st36" width="41.4" height="12.3"/>
<rect x="1109.3" y="522.3" class="st36" width="3.1" height="1.5"/>
</svg>
